<svg version="1.1" id="Layer_1" xmlns="http://www.w3.org/2000/svg" xmlns:xlink="http://www.w3.org/1999/xlink" x="0px" y="0px"
	 width="100%" viewBox="0 0 300 300" enable-background="new 0 0 300 300" xml:space="preserve">
<path fill="#FFFFFF" opacity="1.000000" stroke="none" 
	d="
M171.000000,301.000000 
	C114.000008,301.000000 57.500019,301.000000 1.000023,301.000000 
	C1.000015,201.000031 1.000015,101.000053 1.000008,1.000063 
	C100.999947,1.000042 200.999893,1.000042 300.999878,1.000021 
	C300.999939,100.999939 300.999939,200.999878 300.999969,300.999908 
	C257.833344,301.000000 214.666672,301.000000 171.000000,301.000000 
M192.500000,10.999214 
	C132.072937,10.999214 71.645882,10.999214 11.285398,10.999214 
	C11.285398,104.641266 11.285398,197.710709 11.285398,290.714539 
	C104.641296,290.714539 197.710739,290.714539 290.714539,290.714539 
	C290.714539,197.358658 290.714539,104.289230 290.714539,10.999214 
	C258.119232,10.999214 225.809616,10.999214 192.500000,10.999214 
z"/>
<path fill="#000000" opacity="1.000000" stroke="none" 
	d="
M193.000000,10.999214 
	C225.809616,10.999214 258.119232,10.999214 290.714539,10.999214 
	C290.714539,104.289230 290.714539,197.358658 290.714539,290.714539 
	C197.710739,290.714539 104.641296,290.714539 11.285398,290.714539 
	C11.285398,197.710709 11.285398,104.641266 11.285398,10.999214 
	C71.645882,10.999214 132.072937,10.999214 193.000000,10.999214 
M132.920151,174.357681 
	C127.323769,192.352325 121.727379,210.346954 116.016945,228.708313 
	C122.026474,228.708313 127.362000,228.480743 132.666565,228.787811 
	C136.243179,228.994858 137.845108,227.870941 138.935318,224.327759 
	C152.699371,179.594620 166.642532,134.916611 180.519928,90.218292 
	C180.925385,88.912369 181.111084,87.538216 181.423630,86.082291 
	C174.123001,86.082291 167.320511,86.082291 160.349991,86.082291 
	C151.239319,115.311150 142.159271,144.441833 132.920151,174.357681 
M49.647655,174.856720 
	C64.879631,180.916870 80.111610,186.977005 95.866982,193.245392 
	C95.866982,187.210281 95.689316,181.759033 95.937790,176.327286 
	C96.073250,173.366058 95.089699,171.974625 92.291290,170.957214 
	C79.653885,166.362732 67.096634,161.547211 54.523998,156.775772 
	C52.785400,156.115967 51.122173,155.257553 48.316769,153.991318 
	C51.010971,152.773026 52.433929,152.041245 53.919323,151.472549 
	C62.137424,148.326233 70.385101,145.256851 78.593903,142.086700 
	C84.293610,139.885544 92.299629,139.073196 94.983490,134.888107 
	C97.877769,130.374893 95.774940,122.654785 95.835030,116.333504 
	C95.837822,116.039009 95.674156,115.742935 95.501160,115.149757 
	C93.948845,115.723816 92.409645,116.253822 90.899826,116.857323 
	C72.709114,124.128380 54.517006,131.396011 36.339233,138.699326 
	C31.723766,140.553680 25.272852,141.331055 23.080025,144.776535 
	C20.721384,148.482559 22.524010,154.752731 22.226782,159.887665 
	C22.058229,162.799637 22.936195,164.263168 25.814991,165.315918 
	C33.606777,168.165329 41.246830,171.429642 49.647655,174.856720 
M278.286469,144.620544 
	C277.593628,144.178146 276.950531,143.611359 276.200714,143.311462 
	C253.240570,134.128326 230.270996,124.968803 207.295715,115.823624 
	C206.647217,115.565498 205.920563,115.503700 205.029633,115.305763 
	C205.029633,121.042244 205.201813,126.376961 204.961395,131.693008 
	C204.829193,134.616623 205.748566,136.024887 208.564804,137.044098 
	C221.204666,141.618530 233.759186,146.429398 246.329956,151.193314 
	C248.081055,151.856918 249.751312,152.733810 252.951111,154.191879 
	C235.944229,160.670547 220.439484,166.576965 205.276489,172.353210 
	C205.276489,179.576767 205.276489,186.149292 205.276489,193.170593 
	C229.941116,183.294266 254.234665,173.566544 278.429016,163.878540 
	C278.429016,157.429474 278.429016,151.434723 278.286469,144.620544 
z"/>
<path fill="#FBFBFB" opacity="1.000000" stroke="none" 
	d="
M132.999680,173.965103 
	C142.159271,144.441833 151.239319,115.311150 160.349991,86.082291 
	C167.320511,86.082291 174.123001,86.082291 181.423630,86.082291 
	C181.111084,87.538216 180.925385,88.912369 180.519928,90.218292 
	C166.642532,134.916611 152.699371,179.594620 138.935318,224.327759 
	C137.845108,227.870941 136.243179,228.994858 132.666565,228.787811 
	C127.362000,228.480743 122.026474,228.708313 116.016945,228.708313 
	C121.727379,210.346954 127.323769,192.352325 132.999680,173.965103 
z"/>
<path fill="#FAFAFA" opacity="1.000000" stroke="none" 
	d="
M49.297363,174.693054 
	C41.246830,171.429642 33.606777,168.165329 25.814991,165.315918 
	C22.936195,164.263168 22.058229,162.799637 22.226782,159.887665 
	C22.524010,154.752731 20.721384,148.482559 23.080025,144.776535 
	C25.272852,141.331055 31.723766,140.553680 36.339233,138.699326 
	C54.517006,131.396011 72.709114,124.128380 90.899826,116.857323 
	C92.409645,116.253822 93.948845,115.723816 95.501160,115.149757 
	C95.674156,115.742935 95.837822,116.039009 95.835030,116.333504 
	C95.774940,122.654785 97.877769,130.374893 94.983490,134.888107 
	C92.299629,139.073196 84.293610,139.885544 78.593903,142.086700 
	C70.385101,145.256851 62.137424,148.326233 53.919323,151.472549 
	C52.433929,152.041245 51.010971,152.773026 48.316769,153.991318 
	C51.122173,155.257553 52.785400,156.115967 54.523998,156.775772 
	C67.096634,161.547211 79.653885,166.362732 92.291290,170.957214 
	C95.089699,171.974625 96.073250,173.366058 95.937790,176.327286 
	C95.689316,181.759033 95.866982,187.210281 95.866982,193.245392 
	C80.111610,186.977005 64.879631,180.916870 49.297363,174.693054 
z"/>
<path fill="#FCFCFC" opacity="1.000000" stroke="none" 
	d="
M278.357727,145.030258 
	C278.429016,151.434723 278.429016,157.429474 278.429016,163.878540 
	C254.234665,173.566544 229.941116,183.294266 205.276489,193.170593 
	C205.276489,186.149292 205.276489,179.576767 205.276489,172.353210 
	C220.439484,166.576965 235.944229,160.670547 252.951111,154.191879 
	C249.751312,152.733810 248.081055,151.856918 246.329956,151.193314 
	C233.759186,146.429398 221.204666,141.618530 208.564804,137.044098 
	C205.748566,136.024887 204.829193,134.616623 204.961395,131.693008 
	C205.201813,126.376961 205.029633,121.042244 205.029633,115.305763 
	C205.920563,115.503700 206.647217,115.565498 207.295715,115.823624 
	C230.270996,124.968803 253.240570,134.128326 276.200714,143.311462 
	C276.950531,143.611359 277.593628,144.178146 278.357727,145.030258 
z"/>
</svg>